<svg width="196" height="82" viewBox="0 0 196 82" fill="none" xmlns="http://www.w3.org/2000/svg">
<g filter="url(#filter0_d_137_7)">
<path d="M33.984 18.848H39.168C39.7653 18.848 40.064 19.1467 40.064 19.744V59.104C40.064 59.7013 39.7653 60 39.168 60H36.352C35.7547 60 35.456 59.7013 35.456 59.104V25.12H35.2L25.28 50.208C25.024 50.7627 24.64 51.04 24.128 51.04H21.056C20.5013 51.04 20.1387 50.7627 19.968 50.208L9.856 25.056H9.6V59.104C9.6 59.7013 9.32267 60 8.768 60H5.952C5.35467 60 5.056 59.7013 5.056 59.104V19.744C5.056 19.1467 5.35467 18.848 5.952 18.848H11.136C11.52 18.848 11.776 19.0187 11.904 19.36L22.4 45.856H22.72L33.216 19.36C33.3013 19.0187 33.5573 18.848 33.984 18.848Z" fill="#C61F26"/>
<path d="M72.069 18.848H74.949C75.5463 18.848 75.845 19.1253 75.845 19.68V50.528C75.845 53.5147 75.013 55.84 73.349 57.504C71.685 59.168 69.381 60 66.437 60H59.333C56.389 60 54.0637 59.168 52.357 57.504C50.693 55.84 49.861 53.5147 49.861 50.528V19.744C49.861 19.1467 50.1597 18.848 50.757 18.848H53.637C54.2343 18.848 54.533 19.1467 54.533 19.744V50.336C54.533 54.048 56.3037 55.904 59.845 55.904H65.861C69.445 55.904 71.237 54.048 71.237 50.336V19.744C71.237 19.1467 71.5143 18.848 72.069 18.848ZM85.1705 50.528V48.48C85.1705 47.8827 85.4692 47.584 86.0665 47.584H88.9465C89.5438 47.584 89.8425 47.8827 89.8425 48.48V50.144C89.8425 53.984 91.7412 55.904 95.5385 55.904H101.171C104.968 55.904 106.867 53.9413 106.867 50.016V47.84C106.867 44.768 104.328 42.7627 99.2505 41.824C97.1172 41.44 94.9838 40.992 92.8505 40.48C90.7172 39.968 88.9038 38.9867 87.4105 37.536C85.9172 36.0427 85.1705 34.016 85.1705 31.456V28.32C85.1705 25.376 86.0025 23.072 87.6665 21.408C89.3732 19.7013 91.6985 18.848 94.6425 18.848H101.747C104.648 18.848 106.952 19.7013 108.659 21.408C110.365 23.072 111.219 25.376 111.219 28.32V29.92C111.219 30.56 110.941 30.88 110.387 30.88H107.443C106.888 30.88 106.611 30.56 106.611 29.92V28.768C106.611 24.8853 104.712 22.944 100.915 22.944H95.4745C91.6772 22.944 89.7785 24.9707 89.7785 29.024V31.584C89.7785 33.76 91.2078 35.2533 94.0665 36.064C95.3465 36.4053 96.7545 36.7253 98.2905 37.024C99.8265 37.28 101.363 37.6427 102.899 38.112C104.477 38.5387 105.907 39.0933 107.187 39.776C108.467 40.416 109.491 41.4187 110.259 42.784C111.069 44.1067 111.475 45.728 111.475 47.648V50.528C111.475 53.472 110.621 55.7973 108.915 57.504C107.208 59.168 104.904 60 102.003 60H94.6425C91.7412 60 89.4372 59.168 87.7305 57.504C86.0238 55.7973 85.1705 53.472 85.1705 50.528ZM126.111 19.744V59.104C126.111 59.7013 125.812 60 125.215 60H122.335C121.737 60 121.439 59.7013 121.439 59.104V19.744C121.439 19.1467 121.737 18.848 122.335 18.848H125.215C125.812 18.848 126.111 19.1467 126.111 19.744ZM140.332 60H137.452C136.855 60 136.556 59.7013 136.556 59.104V19.744C136.556 19.1467 136.855 18.848 137.452 18.848H157.356C157.953 18.848 158.252 19.1467 158.252 19.744V22.048C158.252 22.6453 157.953 22.944 157.356 22.944H141.868C141.441 22.944 141.228 23.136 141.228 23.52V37.472C141.228 37.856 141.441 38.048 141.868 38.048H155.564C156.161 38.048 156.46 38.3467 156.46 38.944V41.248C156.46 41.8453 156.161 42.144 155.564 42.144H141.868C141.441 42.144 141.228 42.3573 141.228 42.784V59.104C141.228 59.7013 140.929 60 140.332 60ZM178.158 60H175.278C174.681 60 174.382 59.7013 174.382 59.104V44.576L162.222 19.808C162.094 19.5093 162.094 19.2747 162.222 19.104C162.35 18.9333 162.542 18.848 162.798 18.848H166.382C166.851 18.848 167.214 19.1467 167.47 19.744L176.622 39.136H176.942L186.03 19.744C186.201 19.1467 186.542 18.848 187.054 18.848H190.702C191.427 18.848 191.619 19.168 191.278 19.808L179.054 44.576V59.104C179.054 59.7013 178.755 60 178.158 60Z" fill="#2B2D42"/>
</g>
<defs>
<filter id="filter0_d_137_7" x="1.05603" y="18.848" width="194.734" height="49.152" filterUnits="userSpaceOnUse" color-interpolation-filters="sRGB">
<feFlood flood-opacity="0" result="BackgroundImageFix"/>
<feColorMatrix in="SourceAlpha" type="matrix" values="0 0 0 0 0 0 0 0 0 0 0 0 0 0 0 0 0 0 127 0" result="hardAlpha"/>
<feOffset dy="4"/>
<feGaussianBlur stdDeviation="2"/>
<feComposite in2="hardAlpha" operator="out"/>
<feColorMatrix type="matrix" values="0 0 0 0 0 0 0 0 0 0 0 0 0 0 0 0 0 0 0.25 0"/>
<feBlend mode="normal" in2="BackgroundImageFix" result="effect1_dropShadow_137_7"/>
<feBlend mode="normal" in="SourceGraphic" in2="effect1_dropShadow_137_7" result="shape"/>
</filter>
</defs>
</svg>
